<?xml version="1.0" encoding="UTF-8"?>
<svg width="128px" height="128px" viewBox="0 0 512 512" version="1.1" xmlns="http://www.w3.org/2000/svg" xmlns:xlink="http://www.w3.org/1999/xlink">
    <title>Icon</title>
    <defs>
        <rect id="path-1" x="5.68434189e-14" y="0" width="233" height="199" rx="18"></rect>
    </defs>
    <g id="Icon" stroke="none" stroke-width="1" fill="none" fill-rule="evenodd">
        <g id="Group" transform="translate(229.967666, 332.584916) rotate(-51.000000) translate(-229.967666, -332.584916) translate(113.467666, 233.084916)">
            <g id="Rectangle">
                <use fill="#282A30" fill-rule="evenodd" xlink:href="#path-1"></use>
                <rect stroke="#C7C7C7" stroke-width="3" x="-1.5" y="-1.5" width="236" height="202" rx="18"></rect>
                <rect stroke="#000000" stroke-width="12" stroke-linejoin="square" x="6" y="6" width="221" height="187" rx="18"></rect>
            </g>
            <text id="Warning" font-family="Monaco" font-size="36" font-weight="normal" letter-spacing="-0.777600014" fill="#FFBA00">
                <tspan x="31.5311099" y="146.087324">Warning</tspan>
            </text>
            <text id="KASPAR" font-family="Monaco" font-size="53" font-weight="normal" letter-spacing="-1.14480002" fill="#FFBA00">
                <tspan x="31.5311099" y="92.0873235">KASPAR</tspan>
            </text>
        </g>
        <path d="M325.204102,149.675293 C326.700195,178.743001 327.671875,207.702799 328.119141,236.554687 L158.525391,216.255859 C160.361279,203.354264 164.581331,191.615983 171.185547,181.041016 C178.221606,169.77456 182.586807,172.044363 192.410156,161.998047 C198.290908,155.983816 198.216469,155.775149 202.59375,148.919922 C206.099282,143.429934 207.235857,140.436768 208.175781,137.307617 C210.337002,130.112584 211.138184,126.637207 210.536133,122.478516 C210.058302,116.305554 205.272743,104.865862 192.410156,99.1860352 C154.507813,82.4492188 127.844353,98.3002352 121.94043,101.588867 C118.249512,103.61084 108.686397,111.04867 105.828125,110.378906 C103.531124,109.840662 103.314764,107.124562 103.950195,104.050781 C105.143066,99.1254883 106.168945,96.262207 109.591797,92.1728516 C120.069695,79.8627248 123.888672,77.1972656 134.194336,69.9169922 C149.313477,61.5947266 152.228516,59.4604492 169.546875,53.3818359 C185.668434,48.3831474 186.279429,48.208899 203.337402,46.5737305 C214.997559,45.6328125 221.650391,45.5820312 239.78418,47.4819336 C252.687012,49.3955078 259.270944,49.9674705 274.782227,57.9121094 C284.356934,63.0092773 290.77445,66.3666643 300.395996,78.5263672 C307.504395,88.5175781 309.781571,94.0772316 316.297363,110.378906 C319.451172,120.015625 322.970703,129.366211 325.204102,149.675293 Z" id="Path-4" fill="#257500"></path>
        <path d="M241.816406,318 L381.890625,308 C392.657721,308.683259 397.064799,307.350803 395.11186,304.002634 C391.511348,297.829822 388.130311,291.600429 384.96875,285.314453 C375.015625,267.115578 371.936523,260.286133 368.429688,247.566406 C365.015461,234.032475 365.79541,227.303394 368.429688,219.753906 C370.970215,213.783691 377.168946,208.065187 381.890625,205.744141 C399.706543,196.986328 431.895508,199.559082 449.986816,217.433105 C456.697853,224.063539 460.500977,231.943359 465.884766,247.566406 C468.390976,254.839097 469.600054,259.878514 470.664063,267.115578 C472.328214,278.434629 472.109375,289.904297 472.109375,289.904297 C472.109375,289.904297 475.103516,295.263672 475.103516,295.263672 C475.103516,295.263672 477.238514,297.302182 479.53125,295.263672 C487.243397,288.406674 489.01708,283.919031 491.339844,277.464844 C493.839355,270.519531 495.799414,263.27667 495.5625,252.583984 C495.229585,237.558461 492.890137,228.474609 490.412598,221.666504 C484.635266,205.790797 480.982447,198.784301 464.652344,181.058594 C448.792994,163.843871 438.310884,158.099385 426.164062,151.464844 C408.914063,142.042969 401.652344,139.811035 388.943359,137.804687 C375.996094,135.606445 361.791992,135.100586 339.294434,139.811035 C319.606182,143.933283 301.78125,154.637695 297.053711,156.993164 C286.300781,162.850098 278.165527,169.43457 270.337891,177.35791 C267.095703,180.85791 258.308594,190.514648 254.911133,197.890625 C248.420244,211.024226 248.54602,214.727365 247.46875,225.648437 C244.410237,256.654832 242.526122,287.438686 241.816406,318 Z" id="Path-3" fill="#0018FF"></path>
        <path d="M96.2324219,317.957031 L242,317.957031 C244.673117,287.341971 246.31895,265.43507 246.9375,252.236328 C247.865324,232.438216 248.611691,226.026089 246.9375,212.599609 C245.589355,205.121094 244.695312,197.14502 238.701172,186.183594 C219.304199,154.490234 192.175781,145.710937 165.955078,143.050781 C139.734375,140.390625 134.130104,139.801301 110.597656,145.710937 C91.7280273,151.770508 81.2460937,155.86084 68.0527344,167.636719 C54.6503906,180.050781 54.4965085,181.563774 45.8125,194.177734 C37.1284915,206.791695 36.5304189,210.16221 31.5625,220.640625 C26.5945811,231.11904 26.1958183,233.682243 23.1367188,242.005859 C21.0973191,247.554937 18.9540899,254.654546 16.7070312,263.304687 C19.3007813,261.252604 22.0585938,258.84375 24.9804688,256.078125 C29.3632812,251.929687 34.0410156,244.050781 48.5996094,230.662109 C63.1582031,217.273437 67.3085938,211.890625 84.7714844,203.683594 C93.1395837,199.753707 107.018854,198.445312 114.558594,198.445312 C122.098334,198.445312 126.869141,201.693359 129.326172,204.234375 C132.3198,207.131348 134.424805,213.669922 134.671875,219.775391 C134.511719,223.46582 134.204102,227.321289 132.244141,235.847656 C128.539551,252.5 127.521316,258.930459 122.863281,272.574219 C118.205246,286.217979 116.376478,289.404011 110.597656,299.251953 C106.745109,305.817248 101.956697,312.052274 96.2324219,317.957031 Z" id="Path-2" stroke="#979797" fill="#F00017"></path>
        <ellipse id="Oval-Copy-2" fill="#FFBA00" cx="476" cy="300.5" rx="18" ry="17.5"></ellipse>
        <ellipse id="Oval-Copy-3" fill="#FFBA00" cx="97" cy="110.5" rx="18" ry="17.5"></ellipse>
        <ellipse id="Oval-Copy-4" fill="#FFBA00" cx="21" cy="258.5" rx="18" ry="17.5"></ellipse>
        <path d="M243.14908,286.5 C192.837259,286.5 147.560036,290.149609 107.317575,297.450498 L88.9526385,329.347493 C141.001005,321.361966 191.955602,317.369361 241.816406,317.369361 C291.777529,317.369361 347.254942,321.378184 408.248593,329.396718 L396.631793,297.450518 C347.736948,290.15003 296.576032,286.5 243.14908,286.5 Z" id="Rectangle" stroke="#979797" fill="#FFBA00"></path>
    </g>
</svg>